<?xml version="1.0" encoding="utf-8"?>
<!-- Generator: Adobe Illustrator 21.0.2, SVG Export Plug-In . SVG Version: 6.00 Build 0)  -->
<svg version="1.1" id="Layer_1" xmlns="http://www.w3.org/2000/svg" xmlns:xlink="http://www.w3.org/1999/xlink" x="0px" y="0px"
	 viewBox="0 0 575.6 109.2" style="enable-background:new 0 0 575.6 109.2;" xml:space="preserve">
<style type="text/css">
	.st0{fill:#4D4D4D;}
	.st1{display:none;fill:url(#SVGID_1_);}
	.st2{display:none;fill:url(#SVGID_2_);}
	.st3{fill:url(#SVGID_3_);}
	.st4{fill:url(#SVGID_4_);}
	.st5{fill:url(#SVGID_5_);}
	.st6{fill:url(#SVGID_6_);}
	.st7{fill:url(#SVGID_7_);}
	.st8{fill:url(#SVGID_8_);}
	.st9{display:none;fill:url(#SVGID_9_);}
	.st10{display:none;fill:url(#SVGID_10_);}
	.st11{display:none;}
	.st12{display:inline;fill:#999999;}
</style>
<image style="display:none;overflow:visible;enable-background:new    ;" width="824" height="364" xlink:href="E30C7CBF.png"  transform="matrix(0.9979 0 0 0.9979 -107.84 40.3687)">
</image>
<g>
	<path class="st0" d="M96.4,109.2H76.6L20.4,34.6v74.6H0V0h19.8l56.3,74.7V0h20.3V109.2z"/>
	<path class="st0" d="M312.9,52.3l39.8,56.9h-25.1l-27.9-39l-27.6,39h-24.5l39.3-56L250.1,0h24.5l25.1,35.9L324.8,0h24.8L312.9,52.3
		z"/>
	<path class="st0" d="M462.9,63.7c0,28.7-18.3,46.5-47.9,46.5c-29.8,0-48.5-17.8-48.5-46.5V0h20.9v63.7c0,17.3,11.1,27.8,27.6,27.8
		s27-10.3,27-27.8V0h20.9V63.7z"/>
	<path class="st0" d="M575.6,37.6c0,25-15.8,39.5-43.2,39.5h-23.9v32.1h-20.9V0h44.8C559.8,0,575.6,13.6,575.6,37.6z M508.5,18.3
		v40.4h22.8c15.6,0,24.5-6.7,24.5-20.4c0-13.4-8.9-20-24.5-20H508.5z"/>
</g>
<linearGradient id="SVGID_1_" gradientUnits="userSpaceOnUse" x1="130.775" y1="434.75" x2="153.575" y2="434.75" gradientTransform="matrix(1 0 0 -1 0 446.6)">
	<stop  offset="0" style="stop-color:#FFFFFF"/>
	<stop  offset="1" style="stop-color:#000000"/>
</linearGradient>
<path class="st1" d="M130.8,2.3v19.4c0,0,0.2,1.5,1.1,1.5h20.7c0,0,1-0.3,1-1.4l-0.3-19.5c0,0,0.2-1.6-1.3-1.8h-20
	C132.1,0.5,130.8,0.8,130.8,2.3z"/>
<linearGradient id="SVGID_2_" gradientUnits="userSpaceOnUse" x1="130.775" y1="388.75" x2="153.575" y2="388.75" gradientTransform="matrix(1 0 0 -1 0 446.6)">
	<stop  offset="0" style="stop-color:#FFFFFF"/>
	<stop  offset="1" style="stop-color:#000000"/>
</linearGradient>
<path class="st2" d="M130.8,48.3v19.4c0,0,0.2,1.5,1.1,1.5h20.7c0,0,1-0.3,1-1.4l-0.3-19.5c0,0,0.2-1.6-1.3-1.8h-20
	C132.1,46.5,130.8,46.8,130.8,48.3z"/>
<linearGradient id="SVGID_3_" gradientUnits="userSpaceOnUse" x1="130.775" y1="348.25" x2="153.575" y2="348.25" gradientTransform="matrix(1 0 0 -1 0 446.6)">
	<stop  offset="0" style="stop-color:#47C8EC"/>
	<stop  offset="0.33" style="stop-color:#01C0E1"/>
	<stop  offset="0.66" style="stop-color:#02D9DB"/>
	<stop  offset="1" style="stop-color:#32EFD8"/>
</linearGradient>
<path class="st3" d="M130.8,89.2v18.5c0,0,0.2,1.4,1.1,1.5h20.7c0,0,1-0.2,1-1.3l-0.3-18.7c0,0,0.2-1.5-1.3-1.7h-20
	C132.1,87.5,130.8,87.8,130.8,89.2z"/>
<linearGradient id="SVGID_4_" gradientUnits="userSpaceOnUse" x1="130.775" y1="391.2573" x2="153.575" y2="391.2573" gradientTransform="matrix(1 0 0 -1 0 446.6)">
	<stop  offset="0" style="stop-color:#47C8EC"/>
	<stop  offset="0.33" style="stop-color:#01C0E1"/>
	<stop  offset="0.66" style="stop-color:#02D9DB"/>
	<stop  offset="1" style="stop-color:#32EFD8"/>
</linearGradient>
<path class="st4" d="M130.8,46.2v18.5c0,0,0.2,1.4,1.1,1.5h20.7c0,0,1-0.2,1-1.3l-0.3-18.7c0,0,0.2-1.5-1.3-1.7h-20
	C132.1,44.4,130.8,44.8,130.8,46.2z"/>
<linearGradient id="SVGID_5_" gradientUnits="userSpaceOnUse" x1="130.775" y1="435.25" x2="153.575" y2="435.25" gradientTransform="matrix(1 0 0 -1 0 446.6)">
	<stop  offset="0" style="stop-color:#47C8EC"/>
	<stop  offset="0.33" style="stop-color:#01C0E1"/>
	<stop  offset="0.66" style="stop-color:#02D9DB"/>
	<stop  offset="1" style="stop-color:#32EFD8"/>
</linearGradient>
<path class="st5" d="M130.8,2.2v18.5c0,0,0.2,1.4,1.1,1.5h20.7c0,0,1-0.2,1-1.3l-0.3-18.7c0,0,0.2-1.5-1.3-1.7h-20
	C132.1,0.5,130.8,0.8,130.8,2.2z"/>
<linearGradient id="SVGID_6_" gradientUnits="userSpaceOnUse" x1="166.5" y1="435.25" x2="233.4" y2="435.25" gradientTransform="matrix(1 0 0 -1 0 446.6)">
	<stop  offset="0" style="stop-color:#47C8EC"/>
	<stop  offset="0.33" style="stop-color:#01C0E1"/>
	<stop  offset="0.66" style="stop-color:#02D9DB"/>
	<stop  offset="0.9839" style="stop-color:#32EFD8"/>
</linearGradient>
<path class="st6" d="M166.5,6.5l0.1,14.6c0,0-0.1,1.1,0.7,1.2h61.4c0,0,4.3-1.6,4.7-4.8l-0.2-16.4c0,0,0.1-0.7-0.8-0.7h-60.8
	C171.5,0.4,166.5,2,166.5,6.5z"/>
<linearGradient id="SVGID_7_" gradientUnits="userSpaceOnUse" x1="166.5" y1="391.25" x2="233.4" y2="391.25" gradientTransform="matrix(1 0 0 -1 0 446.6)">
	<stop  offset="0" style="stop-color:#47C8EC"/>
	<stop  offset="0.33" style="stop-color:#01C0E1"/>
	<stop  offset="0.66" style="stop-color:#02D9DB"/>
	<stop  offset="0.9839" style="stop-color:#32EFD8"/>
</linearGradient>
<path class="st7" d="M166.5,50.5l0.1,14.6c0,0-0.1,1.1,0.7,1.2h61.4c0,0,4.3-1.6,4.7-4.8l-0.2-16.4c0,0,0.1-0.7-0.8-0.7h-60.8
	C171.5,44.4,166.5,46,166.5,50.5z"/>
<linearGradient id="SVGID_8_" gradientUnits="userSpaceOnUse" x1="167.5" y1="348.25" x2="234.4" y2="348.25" gradientTransform="matrix(1 0 0 -1 0 446.6)">
	<stop  offset="0" style="stop-color:#47C8EC"/>
	<stop  offset="0.33" style="stop-color:#01C0E1"/>
	<stop  offset="0.66" style="stop-color:#02D9DB"/>
	<stop  offset="0.9839" style="stop-color:#32EFD8"/>
</linearGradient>
<path class="st8" d="M167.5,93.5l0.1,14.6c0,0-0.1,1.1,0.7,1.2h61.4c0,0,4.3-1.6,4.7-4.8l-0.2-16.4c0,0,0.1-0.7-0.8-0.7h-60.8
	C172.5,87.4,167.5,89,167.5,93.5z"/>
<linearGradient id="SVGID_9_" gradientUnits="userSpaceOnUse" x1="166.5" y1="388.75" x2="233.4" y2="388.75" gradientTransform="matrix(1 0 0 -1 0 446.6)">
	<stop  offset="0" style="stop-color:#FFFFFF"/>
	<stop  offset="1" style="stop-color:#000000"/>
</linearGradient>
<path class="st9" d="M166.5,52.8l0.1,15.2c0,0-0.1,1.1,0.7,1.3h61.4c0,0,4.3-1.7,4.7-5l-0.2-17.1c0,0,0.1-0.7-0.8-0.8h-60.8
	C171.5,46.4,166.5,48.1,166.5,52.8z"/>
<linearGradient id="SVGID_10_" gradientUnits="userSpaceOnUse" x1="166.5" y1="343.75" x2="233.4" y2="343.75" gradientTransform="matrix(1 0 0 -1 0 446.6)">
	<stop  offset="0" style="stop-color:#FFFFFF"/>
	<stop  offset="1" style="stop-color:#000000"/>
</linearGradient>
<path class="st10" d="M166.5,97.8l0.1,15.2c0,0-0.1,1.1,0.7,1.3h61.4c0,0,4.3-1.7,4.7-5l-0.2-17.1c0,0,0.1-0.7-0.8-0.8h-60.8
	C171.5,91.4,166.5,93.1,166.5,97.8z"/>
<g class="st11">
	<path class="st12" d="M226.8,171.3c0,5.8-3.6,9.1-10,9.1h-5.5v7.4h-4.8v-25.2h10.3C223.2,162.6,226.8,165.7,226.8,171.3z
		 M211.3,166.8v9.3h5.3c3.6,0,5.7-1.5,5.7-4.7c0-3.1-2.1-4.6-5.7-4.6H211.3z"/>
	<path class="st12" d="M249.2,178.2c0,5.9-4.1,9.8-10.2,9.8c-6,0-10.2-4-10.2-9.8s4.1-9.8,10.2-9.8
		C245,168.4,249.2,172.3,249.2,178.2z M233.6,178.2c0,3.5,2.2,5.8,5.4,5.8c3.2,0,5.4-2.4,5.4-5.8c0-3.5-2.2-5.8-5.4-5.8
		C235.8,172.4,233.6,174.8,233.6,178.2z"/>
	<path class="st12" d="M275.4,187.8h-4.8l-4.6-13.6l-4.6,13.6h-4.8l-7.1-19.2h4.8l4.7,14.5l4.6-14.5h4.7l4.6,14.5l4.6-14.5h4.7
		L275.4,187.8z"/>
	<path class="st12" d="M301.7,179.8h-14.2c0.6,2.7,2.7,4.4,5.5,4.4c2,0,3.8-0.8,5.2-2.2l2.5,2.6c-1.9,2.1-4.7,3.3-8.1,3.3
		c-6,0-9.9-4-9.9-9.8c0-5.9,4-9.8,9.8-9.8C299.3,168.4,302.2,172.8,301.7,179.8z M297.5,176.7c-0.1-2.8-2-4.6-4.9-4.6
		c-2.8,0-4.7,1.8-5.1,4.6H297.5z"/>
	<path class="st12" d="M317,168.4v4.5c-4.1-0.3-6.6,2.1-6.6,5.6v9.3h-4.7v-19.3h4.7v3.7C311.8,169.7,314,168.4,317,168.4z"/>
	<path class="st12" d="M337.5,179.8h-14.2c0.6,2.7,2.7,4.4,5.5,4.4c2,0,3.8-0.8,5.2-2.2l2.5,2.6c-1.9,2.1-4.7,3.3-8.1,3.3
		c-6,0-9.9-4-9.9-9.8c0-5.9,4-9.8,9.8-9.8C335.1,168.4,338,172.8,337.5,179.8z M333.3,176.7c-0.1-2.8-2-4.6-4.9-4.6
		c-2.8,0-4.7,1.8-5.1,4.6H333.3z"/>
	<path class="st12" d="M360.2,161.1v26.7h-4.7v-3.1c-1.4,2.1-3.6,3.3-6.5,3.3c-5.5,0-9.2-4-9.2-9.9c0-5.8,3.7-9.8,9.1-9.8
		c3,0,5.2,1.2,6.6,3.3V161h4.7V161.1z M355.5,178.2c0-3.5-2.2-5.9-5.5-5.9c-3.2,0-5.4,2.4-5.5,5.9c0,3.5,2.2,5.9,5.5,5.9
		C353.3,184.1,355.5,181.7,355.5,178.2z"/>
	<path class="st12" d="M395.7,178.3c0,5.8-3.6,9.7-9,9.7c-2.9,0-5.1-1.2-6.6-3.3v3.1h-4.7v-26.7h4.7v10.6c1.4-2.1,3.6-3.3,6.5-3.3
		C392,168.4,395.7,172.4,395.7,178.3z M390.9,178.1c0-3.4-2.2-5.8-5.4-5.8s-5.4,2.4-5.4,5.8c0,3.5,2.2,5.8,5.4,5.8
		S390.9,181.5,390.9,178.1z"/>
	<path class="st12" d="M407.3,190.2c-1.2,3.2-3.5,4.8-6.6,4.8c-1.9,0-3.3-0.5-4.8-1.7l2-3.6c0.9,0.7,1.6,1,2.5,1
		c1.2,0,2.2-0.6,2.8-1.9l0.6-1.3l-8-18.9h4.9l5.5,14l5-14h4.7L407.3,190.2z"/>
</g>
<image style="display:none;overflow:visible;enable-background:new    ;" width="162" height="97" xlink:href="E30C7CBD.jpeg"  transform="matrix(0.8194 0 0 0.821 443.1299 132.6562)">
</image>
<text transform="matrix(1 0 0 1 299.5811 171.1442)" class="st11" style="font-family:'MyriadPro-Regular'; font-size:12px;">Lorem ipsum</text>
</svg>
